<svg xmlns="http://www.w3.org/2000/svg" width="486" height="400" viewBox="4 20 249 200" role="img" aria-label="Tardie flying with a jetpack">
<style>.skin { fill: #c7b9e9; stroke: #38294f; stroke-width: 3; stroke-linejoin: round; }
.far { fill: #a694cc; stroke: #38294f; stroke-width: 2.5; stroke-linejoin: round; }
.detail { fill: none; stroke: #38294f; stroke-width: 2.5; stroke-linecap: round; stroke-linejoin: round; }
.eye { fill: #38294f; }
.seam { opacity: .42; }
.cheek { fill: #aa8acb; opacity: .5; }
.gesture { fill: none; stroke: #786f83; stroke-width: 2.4; stroke-linecap: round; }
.nozzle { fill: #8f97b3; stroke: #38294f; stroke-width: 2.5; stroke-linejoin: round; }
.nozzle-mouth { fill: #38294f; }
.tank-shade { fill: none; stroke: #8f97b3; stroke-width: 4; stroke-linecap: round; opacity: .7; }
.strap { fill: none; stroke: #38294f; stroke-width: 2.5; stroke-linecap: round; }
.strap-fill { fill: #7a6aa6; stroke: #38294f; stroke-width: 2.5; stroke-linejoin: round; }
.tank { fill: #b9c2d9; stroke: #38294f; stroke-width: 3; stroke-linejoin: round; }
.thrust { fill: #ffb347; stroke: #38294f; stroke-width: 2.5; stroke-linejoin: round; }
.thrust-core { fill: #ffe08a; }
.shine { fill: none; stroke: #fff; stroke-width: 2; stroke-linecap: round; opacity: .7; }
</style>
<path class="gesture" d="M14 140h18M8 160h22M16 180h14"/><g transform="rotate(-6 150 150)"><g transform="translate(79 177)"><path class="far" d="M-12 -8 Q-20 6 -12 21 Q-5 28 5 23 Q15 17 9 -8Z"/><path class="detail" d="M-10 24l-2 6m9-4v6m7-7 3 5"/></g><g transform="translate(123 177)"><path class="far" d="M-12 -8 Q-20 6 -12 21 Q-5 28 5 23 Q15 17 9 -8Z"/><path class="detail" d="M-10 24l-2 6m9-4v6m7-7 3 5"/></g><g transform="translate(169 177)"><path class="far" d="M-12 -8 Q-20 6 -12 21 Q-5 28 5 23 Q15 17 9 -8Z"/><path class="detail" d="M-10 24l-2 6m9-4v6m7-7 3 5"/></g><g transform="translate(219 177)"><path class="far" d="M-12 -8 Q-20 6 -12 21 Q-5 28 5 23 Q15 17 9 -8Z"/><path class="detail" d="M-10 24l-2 6m9-4v6m7-7 3 5"/></g><path class="skin" d="M47 160 Q39 137 56 125 Q53 105 80 104 Q89 86 117 94 Q134 78 157 91 Q179 77 197 96 Q226 90 241 116 Q258 141 241 162 Q237 174 220 178 Q222 197 211 202 Q197 208 191 197 L189 185 Q178 190 169 187 Q172 202 159 206 Q146 210 141 198 L139 185 Q129 191 123 188 Q125 203 113 207 Q100 210 95 198 L94 181 Q84 182 80 177 Q83 195 70 201 Q56 206 50 192 Q43 178 47 160Z"/><path class="detail seam" d="M80 109Q64 141 85 170"/><path class="detail seam" d="M118 99Q99 139 118 174"/><path class="detail seam" d="M156 97Q140 137 156 177"/><path class="detail seam" d="M195 105Q178 136 188 171"/><g transform="translate(64 202)"><path class="detail" d="M-6 0l-1 5m7-4v5m6-6 2 4"/></g><g transform="translate(109 207)"><path class="detail" d="M-6 0l-1 5m7-4v5m6-6 2 4"/></g><g transform="translate(155 206)"><path class="detail" d="M-6 0l-1 5m7-4v5m6-6 2 4"/></g><g transform="translate(206 204)"><path class="detail" d="M-6 0l-1 5m7-4v5m6-6 2 4"/></g><ellipse class="cheek" cx="209" cy="138" rx="6" ry="3"/><circle class="eye" cx="214" cy="122" r="4"/><circle class="eye" cx="234" cy="123" r="3.5"/><path class="eye" d="M225 143q9 16 15 0Z"/><g transform="translate(44 6)"><path class="thrust" d="M88.0 70.9Q70.0 66.4 52.0 79.0Q70.0 91.6 88.0 87.1Z"/><path class="thrust-core" d="M88.0 74.5Q75.4 72.7 66.4 79.0Q75.4 85.3 88.0 83.5Z"/><path class="nozzle" d="M99.7 72.7L89.8 70.0A3.6 9.0 0 0 0 89.8 88.0L99.7 85.3Z"/><ellipse class="nozzle-mouth" cx="89.8" cy="79.0" rx="3.6" ry="9.0"/><path class="tank" d="M98.8 70.0H145.6A8.1 9.0 0 0 1 145.6 88.0H98.8A2.7 9.0 0 0 1 98.8 70.0Z"/><path class="tank-shade" d="M100.6 83.5H147.4"/><path class="shine" d="M106.0 73.6H138.4"/><path class="thrust" d="M80.0 81.0Q60.0 76.0 40.0 90.0Q60.0 104.0 80.0 99.0Z"/><path class="thrust-core" d="M80.0 85.0Q66.0 83.0 56.0 90.0Q66.0 97.0 80.0 95.0Z"/><path class="nozzle" d="M93.0 83.0L82.0 80.0A4.0 10.0 0 0 0 82.0 100.0L93.0 97.0Z"/><ellipse class="nozzle-mouth" cx="82.0" cy="90.0" rx="4.0" ry="10.0"/><path class="tank" d="M92.0 80.0H144.0A9.0 10.0 0 0 1 144.0 100.0H92.0A3.0 10.0 0 0 1 92.0 80.0Z"/><path class="tank-shade" d="M94.0 95.0H146.0"/><path class="shine" d="M100.0 84.0H136.0"/><path class="strap-fill" d="M118 68Q121 84 119 101L129 101Q131 84 128 68Z"/></g></g></svg>
